<svg width="40" height="40" fill="none" xmlns="http://www.w3.org/2000/svg"><path d="M35.252 19.163c3.664-3.678 3.664-7.561 0-11.237a.642.642 0 0 0-.455-.189h-5.142a.641.641 0 0 0-.606.432.647.647 0 0 0 .205.717c3.954 3.175 3.962 6.136 0 9.317a.619.619 0 0 0-.054.047c-3.664 3.678-3.664 7.561 0 11.237a.62.62 0 0 0 .054.048c3.954 3.174 3.962 6.135 0 9.316a.644.644 0 0 0 .028 1.029c.108.077.237.12.37.12h5.143c.17 0 .334-.068.454-.19 3.664-3.677 3.664-7.56 0-11.236-3.197-3.21-3.197-6.2.003-9.411z" fill="#EB1616"/><path d="M24.962 19.163c3.665-3.678 3.665-7.561 0-11.237a.642.642 0 0 0-.454-.189h-5.143a.64.64 0 0 0-.606.432.647.647 0 0 0 .205.717c3.954 3.175 3.963 6.136 0 9.317a.603.603 0 0 0-.054.047c-3.664 3.678-3.664 7.561 0 11.237a.604.604 0 0 0 .054.048c3.954 3.174 3.963 6.135 0 9.316a.645.645 0 0 0 .4 1.149h5.142c.17 0 .334-.068.454-.19 3.665-3.677 3.665-7.56 0-11.236-3.197-3.21-3.197-6.2.002-9.411z" fill="#EB1616"/><path d="M14.673 7.926a.642.642 0 0 0-.455-.189H9.073a.641.641 0 0 0-.607.432.647.647 0 0 0 .205.717c3.956 3.172 3.965 6.138 0 9.317a.605.605 0 0 0-.053.047c-1.83 1.839-2.76 3.729-2.76 5.619a.646.646 0 0 0 .643.645h5.143a.642.642 0 0 0 .643-.645c0-1.535.802-3.119 2.384-4.706 3.665-3.676 3.665-7.561.002-11.237z" fill="#EB1616"/><path d="M18.166 13.874 33.903 1.148a.646.646 0 0 0-.7-1.076l-18.64 9.68a.644.644 0 0 0-.336.446l-.078.396-2.908-2.322a5.17 5.17 0 0 0-.765-7.016 5.124 5.124 0 0 0-7.024.324 5.165 5.165 0 0 0-.12 7.057 5.123 5.123 0 0 0 7.009.565l3.524 2.817-.871 4.382-2.655 2.145a5.129 5.129 0 0 0-3.966-1.061 5.125 5.125 0 0 0-3.475 2.194 5.168 5.168 0 0 0 1.67 7.366 5.23 5.23 0 0 0-1.895 1.941A5.255 5.255 0 0 0 2 31.62a.647.647 0 0 0 .643.645.642.642 0 0 0 .643-.645c0-.396.132-3.872 3.857-3.872a5.118 5.118 0 0 0 2.71-.77 5.145 5.145 0 0 0 1.897-2.089 5.168 5.168 0 0 0-.512-5.412l2.905-2.348.083.422a.647.647 0 0 0 .335.446l18.642 9.679a.64.64 0 0 0 .834-.22.647.647 0 0 0-.135-.856L18.166 13.874zM3.287 5.162c0-.766.226-1.514.65-2.15a3.843 3.843 0 0 1 5.934-.587 3.876 3.876 0 0 1 .836 4.219 3.868 3.868 0 0 1-1.42 1.737 3.847 3.847 0 0 1-4.869-.483 3.883 3.883 0 0 1-1.13-2.736zm24.839-1L14.554 15.137l.873-4.382 12.699-6.593zM7.144 26.456a3.847 3.847 0 0 1-2.143-.652 3.885 3.885 0 0 1-.584-5.957 3.853 3.853 0 0 1 4.203-.84 3.86 3.86 0 0 1 1.73 1.427 3.882 3.882 0 0 1-.48 4.887 3.853 3.853 0 0 1-2.726 1.135zm8.283-9.464-.154-.775 1.867-1.51 10.986 8.878-12.699-6.593z" fill="#fff"/></svg>