<svg width="41" height="40" fill="none" xmlns="http://www.w3.org/2000/svg"><path d="M28.388 33.548a1.935 1.935 0 1 0 0-3.87 1.935 1.935 0 0 0 0 3.87zM29.679 21.935h-2.581a.645.645 0 0 0-.645.646v2.58c0 .356.289.645.645.645h2.58a.645.645 0 0 0 .646-.645v-2.58a.645.645 0 0 0-.645-.646z" fill="#EB1616"/><path d="M38.066 12.903H36.13a.645.645 0 0 1-.645-.645v-2.58a1.935 1.935 0 0 0-1.935-1.936H23.227a1.936 1.936 0 0 0-1.936 1.935v2.581a.645.645 0 0 1-.645.645h-1.935a1.935 1.935 0 0 0-1.936 1.936v18.064a1.935 1.935 0 0 0 1.936 1.936h1.935a.645.645 0 0 1 .645.645v2.58A1.936 1.936 0 0 0 23.227 40H33.55a1.935 1.935 0 0 0 1.935-1.935v-2.581a.645.645 0 0 1 .645-.645h1.936A1.935 1.935 0 0 0 40 32.903V14.84a1.935 1.935 0 0 0-1.935-1.936zm-8.387 7.742a1.935 1.935 0 0 1 1.935 1.936v2.58a1.935 1.935 0 0 1-1.935 1.936h-.646v1.355a3.226 3.226 0 1 1-1.29 0v-1.355h-.645a1.935 1.935 0 0 1-1.936-1.936v-2.58a1.935 1.935 0 0 1 1.936-1.936h.645V19.29a3.226 3.226 0 1 1 1.29 0v1.355h.646z" fill="#EB1616"/><path d="M28.388 18.065a1.935 1.935 0 1 0 0-3.871 1.935 1.935 0 0 0 0 3.87z" fill="#EB1616"/><path d="M.001 26.502a3.11 3.11 0 0 0 2.232 3.068 48.297 48.297 0 0 0 27.795 0 3.075 3.075 0 0 0 2.231-2.962v-.106a3.086 3.086 0 0 0-3.907-2.964 46.834 46.834 0 0 1-24.24.05 28.68 28.68 0 0 0 1.348-2.937h5.34a1.92 1.92 0 0 0 1.876-1.452 28.827 28.827 0 0 0-1.337-17.994A1.945 1.945 0 0 0 9.543 0H5.335a1.94 1.94 0 0 0-1.742 2.774 21.374 21.374 0 0 1 .823 17.008 27.59 27.59 0 0 1-1.695 3.674 3.063 3.063 0 0 0-2.72 3.046zM5.93 19.36A22.61 22.61 0 0 0 4.76 2.228a.645.645 0 0 1 .574-.938h4.208a.645.645 0 0 1 .598.395 27.56 27.56 0 0 1 1.28 17.204.64.64 0 0 1-.624.472H5.93zM1.29 26.5a1.796 1.796 0 0 1 2.284-1.716 48.115 48.115 0 0 0 25.11 0 1.795 1.795 0 0 1 2.284 1.717v.106a1.795 1.795 0 0 1-1.307 1.725 47.045 47.045 0 0 1-27.064 0 1.823 1.823 0 0 1-1.307-1.831z" fill="#fff"/></svg>