<svg width="26" height="22" fill="none" xmlns="http://www.w3.org/2000/svg"><path d="M26 2.61c-.956.44-1.983.739-3.063.873A5.533 5.533 0 0 0 25.282.411a10.398 10.398 0 0 1-3.387 1.346A5.276 5.276 0 0 0 18.868.074a5.155 5.155 0 0 0-3.386.584 5.471 5.471 0 0 0-2.344 2.61 5.764 5.764 0 0 0-.333 3.555 14.685 14.685 0 0 1-6.09-1.684A15.28 15.28 0 0 1 1.81 1.02a5.724 5.724 0 0 0-.721 2.791c0 .914.216 1.814.63 2.62a5.482 5.482 0 0 0 1.743 2.002 5.163 5.163 0 0 1-2.417-.695v.072c0 1.282.426 2.525 1.206 3.517a5.304 5.304 0 0 0 3.074 1.927 5.167 5.167 0 0 1-2.41.096 5.553 5.553 0 0 0 1.898 2.759A5.202 5.202 0 0 0 7.9 17.205 10.439 10.439 0 0 1 0 19.505 14.658 14.658 0 0 0 8.176 22c9.813 0 15.178-8.46 15.178-15.797 0-.238-.006-.48-.016-.717a11.1 11.1 0 0 0 2.66-2.873L26 2.61z" fill="#fff"/></svg>