<svg width="32" height="32" viewBox="0 0 32 32" fill="none" xmlns="http://www.w3.org/2000/svg">
<path d="M31.1242 0.2848C30.5634 1.3088 29.6244 1.92 28.6134 1.92H27.8665C27.8722 1.8176 27.8796 1.7152 27.8796 1.61152C27.8796 0.72128 27.2868 0 26.5551 0C26.0737 0 25.6308 0.31744 25.3973 0.8288C25.2431 1.16672 25.0748 1.49504 24.9154 1.82976L22.0286 1.04896C21.0228 0.77696 19.9955 0.64 18.965 0.64C18.2459 0.64 17.5284 0.70656 16.8177 0.83968L16.8119 0.84096C12.974 1.55904 9.09664 1.92 5.21349 1.92H0V3.84H0.52603V6.4C0.52603 7.1072 0.996827 7.68 1.57809 7.68H4.02834C8.69212 7.68 13.3407 7.03616 17.885 5.76V6.4L18.7435 6.05184C19.1733 5.87776 19.4631 5.38816 19.4631 4.83712V2.56C20.8624 2.56 22.2584 2.72832 23.6303 3.06176L24.1974 3.2L24.2489 3.21344C23.0301 5.6224 21.6772 7.92896 20.198 10.1146C17.2606 14.4538 13.9719 18.4224 10.3807 21.959L5.62063 26.647C5.05989 27.1994 4.73427 28.0301 4.73427 28.9075V29.0918C4.73427 30.6982 5.80422 32 7.12455 32C7.6227 32 8.10823 31.8106 8.5138 31.4586L10.9283 29.36C13.8036 26.8614 16.4395 23.9782 18.7872 20.7648C22.0238 16.3347 24.6782 11.3229 26.6571 5.90656L27.5629 3.42656C27.5898 3.35232 27.6108 3.27552 27.6345 3.2H28.6134C29.9774 3.2 31.243 2.37568 32 0.9952L31.1242 0.2848ZM7.36442 30.08C6.78421 30.08 6.31236 29.5059 6.31236 28.8C6.31236 28.0941 6.78421 27.52 7.36442 27.52C7.94464 27.52 8.41648 28.0941 8.41648 28.8C8.41648 29.5059 7.94464 30.08 7.36442 30.08ZM26.3015 3.2C26.0111 3.2 25.7755 2.91328 25.7755 2.56C25.7755 2.20672 26.0111 1.92 26.3015 1.92C26.5919 1.92 26.8275 2.20672 26.8275 2.56C26.8275 2.91328 26.5919 3.2 26.3015 3.2Z" fill="#EB1616"/>
</svg>
